<svg width="37" height="37" viewBox="0 0 37 37" fill="none" xmlns="http://www.w3.org/2000/svg">
<circle cx="18.5" cy="18.5" r="18.5" fill="#081800"/>
<path d="M23.4766 12H13.5234C12.6834 12 12 12.6834 12 13.5234V23.4766C12 24.3166 12.6834 25 13.5234 25H23.4766C24.3166 25 25 24.3166 25 23.4766V13.5234C25 12.6834 24.3166 12 23.4766 12ZM23.9844 23.4766C23.9844 23.7566 23.7566 23.9844 23.4766 23.9844H20.582V19.8457H22.1509L22.4102 18.2715H20.582V17.1797C20.582 16.7487 20.9127 16.418 21.3438 16.418H22.3848V14.8438H21.3438C20.0508 14.8438 19.0084 15.8911 19.0084 17.1841V18.2715H17.4844V19.8457H19.0084V23.9844H13.5234C13.2434 23.9844 13.0156 23.7566 13.0156 23.4766V13.5234C13.0156 13.2434 13.2434 13.0156 13.5234 13.0156H23.4766C23.7566 13.0156 23.9844 13.2434 23.9844 13.5234V23.4766Z" fill="white"/>
</svg>
