<svg width="37" height="37" viewBox="0 0 37 37" fill="none" xmlns="http://www.w3.org/2000/svg">
<circle cx="18.5" cy="18.5" r="18.5" fill="#081800"/>
<g clip-path="url(#clip0_2299_136)">
<path d="M24.9879 21.178C24.9574 21.8687 24.8457 22.3436 24.6857 22.7551C24.5206 23.1919 24.2667 23.5829 23.934 23.908C23.6089 24.2381 23.2152 24.4947 22.7835 24.6572C22.3697 24.8172 21.8973 24.9289 21.2065 24.9593C20.5106 24.9924 20.2897 25 18.5247 25C16.7597 25 16.5388 24.9924 15.8455 24.9619C15.1547 24.9315 14.6799 24.8197 14.2685 24.6597C13.8316 24.4947 13.4405 24.2407 13.1154 23.908C12.7853 23.5829 12.5289 23.1893 12.3663 22.7575C12.2063 22.3436 12.0946 21.8713 12.0641 21.1805C12.0311 20.4846 12.0234 20.2637 12.0234 18.4987C12.0234 16.7337 12.0311 16.5128 12.0615 15.8195C12.092 15.1288 12.2038 14.6539 12.3638 14.2424C12.5289 13.8056 12.7853 13.4146 13.1154 13.0895C13.4405 12.7593 13.8342 12.5028 14.2659 12.3403C14.6799 12.1803 15.1522 12.0686 15.843 12.0381C16.5362 12.0076 16.7572 12 18.5222 12C20.2872 12 20.5081 12.0076 21.2015 12.0381C21.8922 12.0686 22.3671 12.1803 22.7785 12.3403C23.6521 12.6781 24.3429 13.3688 24.6807 14.2424C24.8406 14.6564 24.9524 15.1288 24.9828 15.8195C25.0133 16.5128 25.0209 16.7337 25.0209 18.4987C25.0209 20.2637 25.0183 20.4846 24.9879 21.178ZM23.8172 15.8703C23.7892 15.2354 23.6826 14.8926 23.5937 14.664C23.3753 14.0977 22.9258 13.6482 22.3594 13.4297C22.1309 13.3408 21.7856 13.2342 21.1531 13.2063C20.4675 13.1758 20.2618 13.1682 18.5273 13.1682C16.7927 13.1682 16.5845 13.1758 15.9013 13.2063C15.2664 13.2342 14.9236 13.3408 14.695 13.4297C14.4132 13.5339 14.1567 13.699 13.9484 13.9148C13.7326 14.1256 13.5675 14.3796 13.4633 14.6614C13.3745 14.89 13.2678 15.2354 13.2399 15.8677C13.2094 16.5534 13.2019 16.7591 13.2019 18.4937C13.2019 20.2282 13.2094 20.4364 13.2399 21.1195C13.2678 21.7544 13.3745 22.0973 13.4633 22.3258C13.5675 22.6078 13.7326 22.8642 13.951 23.0725C14.1617 23.2884 14.4157 23.4534 14.6976 23.5575C14.9262 23.6464 15.2716 23.753 15.9039 23.781C16.5896 23.8115 16.7953 23.8191 18.5298 23.8191C20.2669 23.8191 20.4725 23.8115 21.1557 23.781C21.7906 23.753 22.1335 23.6464 22.362 23.5575C22.6438 23.4534 22.9004 23.2884 23.1086 23.0725C23.3245 22.8617 23.4895 22.6078 23.5937 22.3258C23.6826 22.0973 23.7892 21.7519 23.8172 21.1195C23.8477 20.4339 23.8553 20.2282 23.8553 18.4937C23.8553 16.7591 23.8477 16.556 23.8172 15.8703Z" fill="white"/>
<path d="M18.5251 21.8384C16.6814 21.8384 15.1855 20.3426 15.1855 18.4989C15.1855 16.6551 16.6814 15.1593 18.5251 15.1593C20.3688 15.1593 21.8646 16.6551 21.8646 18.4989C21.8646 20.3426 20.3688 21.8384 18.5251 21.8384ZM18.5251 16.3326C17.329 16.3326 16.3588 17.3027 16.3588 18.4989C16.3588 19.695 17.329 20.6651 18.5251 20.6651C19.7212 20.6651 20.6913 19.695 20.6913 18.4989C20.6913 17.3027 19.7212 16.3326 18.5251 16.3326V16.3326Z" fill="white"/>
<path d="M22.7761 21.9704C22.7761 21.5398 22.4271 21.1908 21.9964 21.1908C21.5659 21.1908 21.2168 21.5398 21.2168 21.9704C21.2168 22.401 21.5659 22.75 21.9964 22.75C22.4271 22.75 22.7761 22.401 22.7761 21.9704V21.9704Z" fill="white"/>
</g>
<defs>
<clipPath id="clip0_2299_136">
<rect width="13" height="13" fill="white" transform="matrix(1 0 0 -1 12 25)"/>
</clipPath>
</defs>
</svg>
